<?xml version="1.0" ?><svg data-name="Layer 1" height="24" id="Layer_1" viewBox="0 0 24 24" width="24" xmlns="http://www.w3.org/2000/svg"><title/><path d="M20,9a7,7,0,0,0-7-7H11A7,7,0,0,0,4,9v1c0,.57813.59167.69482.59167,1S4,11.69482,4,12v1a2,2,0,0,0,2,2H9v2a1,1,0,0,0,1,1h.5V17h1v1h1V17h1v1H14a1,1,0,0,0,1-1V15h3a2,2,0,0,0,2-2V12c0-.45312-.59167-.69482-.59167-1S20,10.51563,20,10Zm-9.71448,2.08051c-.48743,2.12024-1.266,1.75861-2.29266,1.72424-1.08942-.03735-1.81812-.14087-2.04645-.62524-.55939-.66034-.47235-3.69159,2.21887-2.56122C9.38379,10.13007,10.43683,10.53571,10.28552,11.08051Zm2.38312,4.25012c-.52423,0-.3988-.60828-.66864-.60358-.28345.00537-.19708.60358-.70593.60358a.5349.5349,0,0,1-.52429-.67578,6.56615,6.56615,0,0,1,.75391-1.48523.53565.53565,0,0,1,.91541,0,6.54456,6.54456,0,0,1,.75446,1.48523A.53553.53553,0,0,1,12.66864,15.33063Zm5.35529-3.15112c-.22833.48438-.957.58789-2.04645.62524-1.02667.03436-1.80518.396-2.2926-1.72424-.15131-.5448.90167-.95044,2.12024-1.46222C18.49634,8.48792,18.58331,11.51917,18.02393,12.1795Z"/><path d="M16.5,17.58331a2,2,0,0,1-2,2h-1V20.5h-1v-.91669h-1V20.5h-1v-.91669h-1a2,2,0,0,1-2-2V16H6v2.72565a2,2,0,0,0,.83124,1.62292L10,22.63049l.6-.3a3.13051,3.13051,0,0,1,2.8,0l.6.3,3.16876-2.28192A2,2,0,0,0,18,18.72565V16H16.5Z"/></svg>